<mxfile host="app.diagrams.net" modified="2023-02-08T08:23:53.458Z" agent="5.0 (Windows NT 10.0; WOW64) AppleWebKit/537.36 (KHTML, like Gecko) Chrome/94.0.4606.71 Safari/537.36 Core/1.94.190.400 QQBrowser/11.5.5237.400" etag="x8uFkrOntElgInelzP9q" version="20.5.3" type="github">
  <diagram id="YZ-q1tX6LgQDqob_TKN2" name="第 1 页">
    <mxGraphModel dx="1998" dy="1143" grid="1" gridSize="10" guides="1" tooltips="1" connect="1" arrows="1" fold="1" page="1" pageScale="1" pageWidth="827" pageHeight="1169" math="0" shadow="0">
      <root>
        <mxCell id="0" />
        <mxCell id="1" parent="0" />
        <mxCell id="bXp4Yje_5VOtXB1nN6GT-89" value="&lt;div style=&quot;text-align: left; font-size: 14px;&quot;&gt;&lt;span style=&quot;background-color: initial; font-size: 14px;&quot;&gt;可疑标签生成后，最大可能同时推送12局。&lt;/span&gt;&lt;/div&gt;&lt;span style=&quot;font-size: 14px;&quot;&gt;尝试优化逻辑：如先推送最近的6局，依据结果判定是否推送后续的6局&lt;br&gt;&lt;br&gt;&lt;br&gt;&lt;/span&gt;" style="rounded=0;whiteSpace=wrap;html=1;strokeColor=#000000;fontSize=14;" vertex="1" parent="1">
          <mxGeometry x="160" y="600" width="460" height="120" as="geometry" />
        </mxCell>
        <mxCell id="bXp4Yje_5VOtXB1nN6GT-64" value="" style="rounded=0;whiteSpace=wrap;html=1;strokeColor=#FF173E;" vertex="1" parent="1">
          <mxGeometry x="380" y="80" width="240" height="500" as="geometry" />
        </mxCell>
        <mxCell id="bXp4Yje_5VOtXB1nN6GT-3" style="edgeStyle=orthogonalEdgeStyle;rounded=0;orthogonalLoop=1;jettySize=auto;html=1;" edge="1" parent="1" source="bXp4Yje_5VOtXB1nN6GT-1" target="bXp4Yje_5VOtXB1nN6GT-2">
          <mxGeometry relative="1" as="geometry" />
        </mxCell>
        <mxCell id="bXp4Yje_5VOtXB1nN6GT-1" value="可疑标签" style="rounded=0;whiteSpace=wrap;html=1;" vertex="1" parent="1">
          <mxGeometry x="160" y="200" width="120" height="60" as="geometry" />
        </mxCell>
        <mxCell id="bXp4Yje_5VOtXB1nN6GT-60" value="" style="edgeStyle=orthogonalEdgeStyle;rounded=0;orthogonalLoop=1;jettySize=auto;html=1;" edge="1" parent="1" source="bXp4Yje_5VOtXB1nN6GT-2" target="bXp4Yje_5VOtXB1nN6GT-59">
          <mxGeometry relative="1" as="geometry" />
        </mxCell>
        <mxCell id="bXp4Yje_5VOtXB1nN6GT-2" value="推送筛选" style="rounded=0;whiteSpace=wrap;html=1;strokeColor=#FF1443;" vertex="1" parent="1">
          <mxGeometry x="160" y="345" width="120" height="60" as="geometry" />
        </mxCell>
        <mxCell id="bXp4Yje_5VOtXB1nN6GT-63" value="" style="edgeStyle=orthogonalEdgeStyle;rounded=0;orthogonalLoop=1;jettySize=auto;html=1;" edge="1" parent="1" source="bXp4Yje_5VOtXB1nN6GT-32" target="bXp4Yje_5VOtXB1nN6GT-62">
          <mxGeometry relative="1" as="geometry" />
        </mxCell>
        <mxCell id="bXp4Yje_5VOtXB1nN6GT-32" value="" style="shape=table;html=1;whiteSpace=wrap;startSize=0;container=1;collapsible=0;childLayout=tableLayout;" vertex="1" parent="1">
          <mxGeometry x="400" y="190" width="200" height="270" as="geometry" />
        </mxCell>
        <mxCell id="bXp4Yje_5VOtXB1nN6GT-49" style="shape=tableRow;horizontal=0;startSize=0;swimlaneHead=0;swimlaneBody=0;top=0;left=0;bottom=0;right=0;collapsible=0;dropTarget=0;fillColor=none;points=[[0,0.5],[1,0.5]];portConstraint=eastwest;" vertex="1" parent="bXp4Yje_5VOtXB1nN6GT-32">
          <mxGeometry width="200" height="46" as="geometry" />
        </mxCell>
        <mxCell id="bXp4Yje_5VOtXB1nN6GT-50" value="环境（SDK、MRPCS）" style="shape=partialRectangle;html=1;whiteSpace=wrap;connectable=0;fillColor=none;top=0;left=0;bottom=0;right=0;overflow=hidden;" vertex="1" parent="bXp4Yje_5VOtXB1nN6GT-49">
          <mxGeometry width="200" height="46" as="geometry">
            <mxRectangle width="200" height="46" as="alternateBounds" />
          </mxGeometry>
        </mxCell>
        <mxCell id="bXp4Yje_5VOtXB1nN6GT-47" style="shape=tableRow;horizontal=0;startSize=0;swimlaneHead=0;swimlaneBody=0;top=0;left=0;bottom=0;right=0;collapsible=0;dropTarget=0;fillColor=none;points=[[0,0.5],[1,0.5]];portConstraint=eastwest;" vertex="1" parent="bXp4Yje_5VOtXB1nN6GT-32">
          <mxGeometry y="46" width="200" height="44" as="geometry" />
        </mxCell>
        <mxCell id="bXp4Yje_5VOtXB1nN6GT-48" value="画像（设备、用户）" style="shape=partialRectangle;html=1;whiteSpace=wrap;connectable=0;fillColor=none;top=0;left=0;bottom=0;right=0;overflow=hidden;" vertex="1" parent="bXp4Yje_5VOtXB1nN6GT-47">
          <mxGeometry width="200" height="44" as="geometry">
            <mxRectangle width="200" height="44" as="alternateBounds" />
          </mxGeometry>
        </mxCell>
        <mxCell id="bXp4Yje_5VOtXB1nN6GT-45" style="shape=tableRow;horizontal=0;startSize=0;swimlaneHead=0;swimlaneBody=0;top=0;left=0;bottom=0;right=0;collapsible=0;dropTarget=0;fillColor=none;points=[[0,0.5],[1,0.5]];portConstraint=eastwest;" vertex="1" parent="bXp4Yje_5VOtXB1nN6GT-32">
          <mxGeometry y="90" width="200" height="45" as="geometry" />
        </mxCell>
        <mxCell id="bXp4Yje_5VOtXB1nN6GT-46" value="对局表现" style="shape=partialRectangle;html=1;whiteSpace=wrap;connectable=0;fillColor=none;top=0;left=0;bottom=0;right=0;overflow=hidden;" vertex="1" parent="bXp4Yje_5VOtXB1nN6GT-45">
          <mxGeometry width="200" height="45" as="geometry">
            <mxRectangle width="200" height="45" as="alternateBounds" />
          </mxGeometry>
        </mxCell>
        <mxCell id="bXp4Yje_5VOtXB1nN6GT-33" value="" style="shape=tableRow;horizontal=0;startSize=0;swimlaneHead=0;swimlaneBody=0;top=0;left=0;bottom=0;right=0;collapsible=0;dropTarget=0;fillColor=none;points=[[0,0.5],[1,0.5]];portConstraint=eastwest;" vertex="1" parent="bXp4Yje_5VOtXB1nN6GT-32">
          <mxGeometry y="135" width="200" height="46" as="geometry" />
        </mxCell>
        <mxCell id="bXp4Yje_5VOtXB1nN6GT-34" value="标签" style="shape=partialRectangle;html=1;whiteSpace=wrap;connectable=0;fillColor=none;top=0;left=0;bottom=0;right=0;overflow=hidden;" vertex="1" parent="bXp4Yje_5VOtXB1nN6GT-33">
          <mxGeometry width="200" height="46" as="geometry">
            <mxRectangle width="200" height="46" as="alternateBounds" />
          </mxGeometry>
        </mxCell>
        <mxCell id="bXp4Yje_5VOtXB1nN6GT-37" value="" style="shape=tableRow;horizontal=0;startSize=0;swimlaneHead=0;swimlaneBody=0;top=0;left=0;bottom=0;right=0;collapsible=0;dropTarget=0;fillColor=none;points=[[0,0.5],[1,0.5]];portConstraint=eastwest;" vertex="1" parent="bXp4Yje_5VOtXB1nN6GT-32">
          <mxGeometry y="181" width="200" height="43" as="geometry" />
        </mxCell>
        <mxCell id="bXp4Yje_5VOtXB1nN6GT-38" value="UGC发言特征" style="shape=partialRectangle;html=1;whiteSpace=wrap;connectable=0;fillColor=none;top=0;left=0;bottom=0;right=0;overflow=hidden;" vertex="1" parent="bXp4Yje_5VOtXB1nN6GT-37">
          <mxGeometry width="200" height="43" as="geometry">
            <mxRectangle width="200" height="43" as="alternateBounds" />
          </mxGeometry>
        </mxCell>
        <mxCell id="bXp4Yje_5VOtXB1nN6GT-41" value="" style="shape=tableRow;horizontal=0;startSize=0;swimlaneHead=0;swimlaneBody=0;top=0;left=0;bottom=0;right=0;collapsible=0;dropTarget=0;fillColor=none;points=[[0,0.5],[1,0.5]];portConstraint=eastwest;" vertex="1" parent="bXp4Yje_5VOtXB1nN6GT-32">
          <mxGeometry y="224" width="200" height="46" as="geometry" />
        </mxCell>
        <mxCell id="bXp4Yje_5VOtXB1nN6GT-42" value="代练特征" style="shape=partialRectangle;html=1;whiteSpace=wrap;connectable=0;fillColor=none;top=0;left=0;bottom=0;right=0;overflow=hidden;" vertex="1" parent="bXp4Yje_5VOtXB1nN6GT-41">
          <mxGeometry width="200" height="46" as="geometry">
            <mxRectangle width="200" height="46" as="alternateBounds" />
          </mxGeometry>
        </mxCell>
        <mxCell id="bXp4Yje_5VOtXB1nN6GT-54" style="edgeStyle=orthogonalEdgeStyle;rounded=0;orthogonalLoop=1;jettySize=auto;html=1;exitX=0.5;exitY=1;exitDx=0;exitDy=0;entryX=0.5;entryY=0;entryDx=0;entryDy=0;" edge="1" parent="1" source="bXp4Yje_5VOtXB1nN6GT-51" target="bXp4Yje_5VOtXB1nN6GT-1">
          <mxGeometry relative="1" as="geometry" />
        </mxCell>
        <mxCell id="bXp4Yje_5VOtXB1nN6GT-51" value="推送源：&lt;br&gt;单个标签扩展、精细" style="rounded=0;whiteSpace=wrap;html=1;strokeColor=#FF173E;" vertex="1" parent="1">
          <mxGeometry x="160" y="80" width="120" height="60" as="geometry" />
        </mxCell>
        <mxCell id="bXp4Yje_5VOtXB1nN6GT-61" style="edgeStyle=orthogonalEdgeStyle;rounded=0;orthogonalLoop=1;jettySize=auto;html=1;exitX=0.5;exitY=1;exitDx=0;exitDy=0;entryX=0.48;entryY=-0.058;entryDx=0;entryDy=0;entryPerimeter=0;" edge="1" parent="1" source="bXp4Yje_5VOtXB1nN6GT-58" target="bXp4Yje_5VOtXB1nN6GT-49">
          <mxGeometry relative="1" as="geometry" />
        </mxCell>
        <mxCell id="bXp4Yje_5VOtXB1nN6GT-58" value="主动获取数据" style="rounded=0;whiteSpace=wrap;html=1;" vertex="1" parent="1">
          <mxGeometry x="400" y="90" width="200" height="60" as="geometry" />
        </mxCell>
        <mxCell id="bXp4Yje_5VOtXB1nN6GT-59" value="Replay解析" style="rounded=0;whiteSpace=wrap;html=1;" vertex="1" parent="1">
          <mxGeometry x="160" y="510" width="120" height="60" as="geometry" />
        </mxCell>
        <mxCell id="bXp4Yje_5VOtXB1nN6GT-62" value="模型训练、预测、过滤" style="whiteSpace=wrap;html=1;startSize=0;" vertex="1" parent="1">
          <mxGeometry x="400" y="510" width="200" height="60" as="geometry" />
        </mxCell>
        <mxCell id="bXp4Yje_5VOtXB1nN6GT-65" value="" style="line;strokeWidth=2;html=1;strokeColor=#FF173E;" vertex="1" parent="1">
          <mxGeometry x="280" y="370" width="100" height="10" as="geometry" />
        </mxCell>
        <mxCell id="bXp4Yje_5VOtXB1nN6GT-66" value="" style="shape=table;html=1;whiteSpace=wrap;startSize=0;container=1;collapsible=0;childLayout=tableLayout;strokeColor=#000000;" vertex="1" parent="1">
          <mxGeometry x="180" y="670" width="420" height="40" as="geometry" />
        </mxCell>
        <mxCell id="bXp4Yje_5VOtXB1nN6GT-67" value="" style="shape=tableRow;horizontal=0;startSize=0;swimlaneHead=0;swimlaneBody=0;top=0;left=0;bottom=0;right=0;collapsible=0;dropTarget=0;fillColor=none;points=[[0,0.5],[1,0.5]];portConstraint=eastwest;strokeColor=#FF173E;" vertex="1" parent="bXp4Yje_5VOtXB1nN6GT-66">
          <mxGeometry width="420" height="40" as="geometry" />
        </mxCell>
        <mxCell id="bXp4Yje_5VOtXB1nN6GT-68" value="1" style="shape=partialRectangle;html=1;whiteSpace=wrap;connectable=0;fillColor=none;top=0;left=0;bottom=0;right=0;overflow=hidden;strokeColor=#FF173E;fontColor=#FF173E;fontStyle=1" vertex="1" parent="bXp4Yje_5VOtXB1nN6GT-67">
          <mxGeometry width="35" height="40" as="geometry">
            <mxRectangle width="35" height="40" as="alternateBounds" />
          </mxGeometry>
        </mxCell>
        <mxCell id="bXp4Yje_5VOtXB1nN6GT-69" value="2" style="shape=partialRectangle;html=1;whiteSpace=wrap;connectable=0;fillColor=none;top=0;left=0;bottom=0;right=0;overflow=hidden;strokeColor=#FF173E;fontColor=#FF173E;fontStyle=1" vertex="1" parent="bXp4Yje_5VOtXB1nN6GT-67">
          <mxGeometry x="35" width="36" height="40" as="geometry">
            <mxRectangle width="36" height="40" as="alternateBounds" />
          </mxGeometry>
        </mxCell>
        <mxCell id="bXp4Yje_5VOtXB1nN6GT-70" value="3" style="shape=partialRectangle;html=1;whiteSpace=wrap;connectable=0;fillColor=none;top=0;left=0;bottom=0;right=0;overflow=hidden;strokeColor=#FF173E;fontColor=#FF173E;fontStyle=1" vertex="1" parent="bXp4Yje_5VOtXB1nN6GT-67">
          <mxGeometry x="71" width="34" height="40" as="geometry">
            <mxRectangle width="34" height="40" as="alternateBounds" />
          </mxGeometry>
        </mxCell>
        <mxCell id="bXp4Yje_5VOtXB1nN6GT-79" value="4" style="shape=partialRectangle;html=1;whiteSpace=wrap;connectable=0;fillColor=none;top=0;left=0;bottom=0;right=0;overflow=hidden;strokeColor=#FF173E;fontColor=#FF173E;fontStyle=1" vertex="1" parent="bXp4Yje_5VOtXB1nN6GT-67">
          <mxGeometry x="105" width="35" height="40" as="geometry">
            <mxRectangle width="35" height="40" as="alternateBounds" />
          </mxGeometry>
        </mxCell>
        <mxCell id="bXp4Yje_5VOtXB1nN6GT-80" value="5" style="shape=partialRectangle;html=1;whiteSpace=wrap;connectable=0;fillColor=none;top=0;left=0;bottom=0;right=0;overflow=hidden;strokeColor=#FF173E;fontColor=#FF173E;fontStyle=1" vertex="1" parent="bXp4Yje_5VOtXB1nN6GT-67">
          <mxGeometry x="140" width="35" height="40" as="geometry">
            <mxRectangle width="35" height="40" as="alternateBounds" />
          </mxGeometry>
        </mxCell>
        <mxCell id="bXp4Yje_5VOtXB1nN6GT-81" value="6" style="shape=partialRectangle;html=1;whiteSpace=wrap;connectable=0;fillColor=none;top=0;left=0;bottom=0;right=0;overflow=hidden;strokeColor=#FF173E;fontColor=#FF173E;fontStyle=1" vertex="1" parent="bXp4Yje_5VOtXB1nN6GT-67">
          <mxGeometry x="175" width="35" height="40" as="geometry">
            <mxRectangle width="35" height="40" as="alternateBounds" />
          </mxGeometry>
        </mxCell>
        <mxCell id="bXp4Yje_5VOtXB1nN6GT-82" value="7" style="shape=partialRectangle;html=1;whiteSpace=wrap;connectable=0;fillColor=none;top=0;left=0;bottom=0;right=0;overflow=hidden;strokeColor=#FF173E;" vertex="1" parent="bXp4Yje_5VOtXB1nN6GT-67">
          <mxGeometry x="210" width="35" height="40" as="geometry">
            <mxRectangle width="35" height="40" as="alternateBounds" />
          </mxGeometry>
        </mxCell>
        <mxCell id="bXp4Yje_5VOtXB1nN6GT-83" value="8" style="shape=partialRectangle;html=1;whiteSpace=wrap;connectable=0;fillColor=none;top=0;left=0;bottom=0;right=0;overflow=hidden;strokeColor=#FF173E;" vertex="1" parent="bXp4Yje_5VOtXB1nN6GT-67">
          <mxGeometry x="245" width="35" height="40" as="geometry">
            <mxRectangle width="35" height="40" as="alternateBounds" />
          </mxGeometry>
        </mxCell>
        <mxCell id="bXp4Yje_5VOtXB1nN6GT-84" value="9" style="shape=partialRectangle;html=1;whiteSpace=wrap;connectable=0;fillColor=none;top=0;left=0;bottom=0;right=0;overflow=hidden;strokeColor=#FF173E;" vertex="1" parent="bXp4Yje_5VOtXB1nN6GT-67">
          <mxGeometry x="280" width="35" height="40" as="geometry">
            <mxRectangle width="35" height="40" as="alternateBounds" />
          </mxGeometry>
        </mxCell>
        <mxCell id="bXp4Yje_5VOtXB1nN6GT-85" value="10" style="shape=partialRectangle;html=1;whiteSpace=wrap;connectable=0;fillColor=none;top=0;left=0;bottom=0;right=0;overflow=hidden;strokeColor=#FF173E;" vertex="1" parent="bXp4Yje_5VOtXB1nN6GT-67">
          <mxGeometry x="315" width="34" height="40" as="geometry">
            <mxRectangle width="34" height="40" as="alternateBounds" />
          </mxGeometry>
        </mxCell>
        <mxCell id="bXp4Yje_5VOtXB1nN6GT-86" value="11" style="shape=partialRectangle;html=1;whiteSpace=wrap;connectable=0;fillColor=none;top=0;left=0;bottom=0;right=0;overflow=hidden;strokeColor=#FF173E;" vertex="1" parent="bXp4Yje_5VOtXB1nN6GT-67">
          <mxGeometry x="349" width="36" height="40" as="geometry">
            <mxRectangle width="36" height="40" as="alternateBounds" />
          </mxGeometry>
        </mxCell>
        <mxCell id="bXp4Yje_5VOtXB1nN6GT-87" value="12" style="shape=partialRectangle;html=1;whiteSpace=wrap;connectable=0;fillColor=none;top=0;left=0;bottom=0;right=0;overflow=hidden;strokeColor=#FF173E;" vertex="1" parent="bXp4Yje_5VOtXB1nN6GT-67">
          <mxGeometry x="385" width="35" height="40" as="geometry">
            <mxRectangle width="35" height="40" as="alternateBounds" />
          </mxGeometry>
        </mxCell>
      </root>
    </mxGraphModel>
  </diagram>
</mxfile>
